<?xml version="1.0" encoding="utf-8"?>
<!-- Generator: Adobe Illustrator 16.0.0, SVG Export Plug-In . SVG Version: 6.00 Build 0)  -->
<!DOCTYPE svg PUBLIC "-//W3C//DTD SVG 1.1//EN" "http://www.w3.org/Graphics/SVG/1.1/DTD/svg11.dtd">
<svg version="1.1" xmlns="http://www.w3.org/2000/svg" xmlns:xlink="http://www.w3.org/1999/xlink" x="0px" y="0px" width="1300px"
	 height="225px" viewBox="0 0 1300 225" enable-background="new 0 0 1300 225" xml:space="preserve">
<g id="Layer_2_copy">
	<g>
		<path fill-rule="evenodd" clip-rule="evenodd" fill="#C21F29" d="M17.125,0.245h190.508c9.419,0,17.125,7.706,17.125,17.125
			v190.508c0,9.418-7.706,17.122-17.125,17.122H17.125C7.706,225,0,217.296,0,207.878V17.37C0,7.951,7.706,0.245,17.125,0.245
			L17.125,0.245z"/>
		<path fill="#FFFFFF" stroke="#FFFFFF" stroke-width="6.0001" stroke-miterlimit="2.6131" d="M130.033,80.847
			c12.029-12.625,32.02-13.105,44.646-1.074c12.625,12.033,13.106,32.021,1.075,44.646c-12.033,12.629-32.021,13.105-44.647,1.074
			C118.482,113.462,118.001,93.474,130.033,80.847L130.033,80.847z M180.508,117.965l15.372,14.649
			c3.625,3.455,3.765,9.244,0.311,12.868l0,0c-3.455,3.626-9.244,3.766-12.869,0.311l-15.873-15.126
			c3.016-1.567,5.83-3.648,8.305-6.248C177.648,122.429,179.231,120.259,180.508,117.965L180.508,117.965z"/>
		<path fill-rule="evenodd" clip-rule="evenodd" fill="#FFFFFF" d="M86.705,211.632c4.649,0,24.481-11.763,29.396-14.617
			c24.454-14.199,26.056-8.747,25.819-24.699c-0.053-3.585-0.199-15.555-0.199-21.773c-30.342-0.676-59.605-51.163-27.222-83.459
			c15.454-15.413,35.644-19.916,55.384-11.944c5.912,2.387,8.228,4.64,13.405,7.379c3.341-6.313,8.143-13.34,8.558-18.338H31.689
			c1.231,4.607,43.158,76.325,48.533,85.946c4.183,7.485,2.816,13.366,2.815,24.083l-0.072,47.715
			C82.883,207.115,81.755,211.632,86.705,211.632L86.705,211.632z"/>
		<path fill-rule="evenodd" clip-rule="evenodd" fill="#FFFFFF" d="M18.241,17.283c0,13.281-1.871,19.561,3.668,19.561h180.939
			c5.539,0,3.667-6.28,3.667-19.561c0-2.818-0.851-3.668-3.667-3.668H21.909C19.092,13.614,18.241,14.465,18.241,17.283
			L18.241,17.283z"/>
	</g>
	<ellipse fill="#C21F29" cx="153.322" cy="102.028" rx="17.62" ry="17.365"/>
</g>
<g id="Layer_3_copy_3">
	<g>
		<path fill="#C21F29" d="M243.785,150.023l14.086-85.579h17.222l14.026,85.579h-13.553l-2.664-18.524h-13.316l-2.841,18.524
			H243.785z M261.245,119.366h10.061l-4.498-35.746h-0.829L261.245,119.366z"/>
		<path fill="#C21F29" d="M296.695,150.023V64.445h18.761c7.259,0,12.636,1.914,16.127,5.741c3.492,3.828,5.238,9.746,5.238,17.755
			v38.232c0,8.325-1.657,14.381-4.971,18.169c-3.314,3.788-8.582,5.682-15.802,5.682H296.695z M309.774,137.417h6.688
			c2.328,0,4.054-0.729,5.178-2.189c1.125-1.459,1.687-3.729,1.687-6.806V87.23c0-3.511-0.849-6.086-2.545-7.724
			c-1.697-1.637-4.36-2.456-7.99-2.456h-3.019V137.417z"/>
		<path fill="#C21F29" d="M343.213,64.445h12.902l7.872,50.661c0.512,3.235,0.877,6.283,1.095,9.144
			c0.216,2.861,0.326,5.751,0.326,8.671v1.538c0.118-3.748,0.305-7.27,0.562-10.563c0.256-3.294,0.563-6.224,0.917-8.789
			l7.635-50.661h12.961l-15.151,85.579h-13.79L343.213,64.445z"/>
		<path fill="#C21F29" d="M389.257,150.023l14.086-85.579h17.222l14.026,85.579h-13.553l-2.664-18.524h-13.316l-2.841,18.524
			H389.257z M406.716,119.366h10.061l-4.498-35.746h-0.829L406.716,119.366z"/>
		<path fill="#C21F29" d="M442.167,150.023V64.445h11.836l16.749,51.134c0.315,0.986,0.7,2.288,1.154,3.906
			c0.453,1.618,0.917,3.354,1.391,5.208c-0.435-2.486-0.79-4.784-1.065-6.896c-0.276-2.109-0.415-3.659-0.415-4.646V64.445h12.37
			v85.579h-12.37l-16.098-47.287c-0.08-0.197-0.177-0.493-0.296-0.888c-1.105-3.235-1.934-6.037-2.486-8.404
			c0.474,2.999,0.838,5.495,1.095,7.486c0.256,1.993,0.385,3.443,0.385,4.351v44.742H442.167z"/>
		<path fill="#C21F29" d="M496.083,128.066V84.212c0-6.747,1.835-12.034,5.504-15.861c3.669-3.827,8.739-5.741,15.21-5.741
			c6.115,0,10.958,1.963,14.529,5.889c3.57,3.926,5.356,9.282,5.356,16.068v8.227h-13.553v-9.41c0-2.959-0.573-5.179-1.716-6.658
			c-1.145-1.479-2.841-2.219-5.09-2.219s-3.946,0.74-5.09,2.219c-1.145,1.479-1.716,3.699-1.716,6.658v47.761
			c0,2.959,0.572,5.188,1.716,6.688c1.144,1.5,2.841,2.249,5.09,2.249s3.945-0.749,5.09-2.249c1.144-1.499,1.716-3.729,1.716-6.688
			v-11.659h13.553v8.937c0,7.497-1.766,13.277-5.297,17.341c-3.532,4.063-8.552,6.096-15.062,6.096
			c-6.668,0-11.709-2.013-15.121-6.037C497.789,141.797,496.083,135.879,496.083,128.066z"/>
		<path fill="#C21F29" d="M547.986,150.023V64.445h34.444v12.369h-21.247v22.43h15.312v12.369h-15.312v25.567h21.247v12.843H547.986
			z"/>
		<path fill="#C21F29" d="M592.61,150.023V64.445h18.761c7.259,0,12.636,1.914,16.127,5.741c3.492,3.828,5.238,9.746,5.238,17.755
			v38.232c0,8.325-1.657,14.381-4.971,18.169c-3.314,3.788-8.582,5.682-15.802,5.682H592.61z M605.689,137.417h6.688
			c2.328,0,4.054-0.729,5.178-2.189c1.125-1.459,1.687-3.729,1.687-6.806V87.23c0-3.511-0.849-6.086-2.545-7.724
			c-1.697-1.637-4.36-2.456-7.99-2.456h-3.019V137.417z"/>
		<path fill="#C21F29" d="M669.37,150.023V64.445h34.386v12.369h-21.188v22.43h15.27v12.369h-15.27v38.41H669.37z"/>
		<path fill="#C21F29" d="M709.852,150.023V64.445h13.435v85.579H709.852z"/>
		<path fill="#C21F29" d="M736.543,150.023V64.445h13.08v73.209h20.478v12.369H736.543z"/>
		<path fill="#C21F29" d="M769.981,76.814V64.445h40.6v12.369h-13.73v73.209h-13.198V76.814H769.981z"/>
		<path fill="#C21F29" d="M816.677,150.023V64.445h34.445v12.369h-21.247v22.43h15.312v12.369h-15.312v25.567h21.247v12.843H816.677
			z"/>
		<path fill="#C21F29" d="M874.381,114.04v35.983h-13.198V64.445h19.354c7.259,0,12.507,1.953,15.742,5.859
			c3.234,3.906,4.853,10.2,4.853,18.879c0,5.366-0.65,9.707-1.952,13.02c-1.303,3.314-3.433,5.998-6.393,8.05l9.706,39.771h-13.671
			l-8.167-35.983H874.381z M874.381,76.814v24.857h5.208c3.038,0,5.148-0.917,6.332-2.752s1.776-5.238,1.776-10.209
			c0-4.498-0.622-7.605-1.864-9.321c-1.243-1.716-3.483-2.575-6.718-2.575H874.381z"/>
		<path fill="#C21F29" d="M965.759,144.815c-2.012,2.407-4.252,4.202-6.717,5.386c-2.467,1.184-5.199,1.775-8.197,1.775
			c-5.406,0-9.785-1.894-13.139-5.682s-5.03-8.72-5.03-14.796c0-3.906,0.808-7.772,2.427-11.6c1.617-3.827,4.201-7.97,7.753-12.429
			c-2.053-4.734-3.552-9.064-4.498-12.991c-0.947-3.925-1.421-7.762-1.421-11.511c0-5.997,1.548-10.87,4.646-14.618
			c3.097-3.748,7.072-5.623,11.925-5.623c4.616,0,8.275,1.618,10.979,4.853c2.702,3.235,4.054,7.615,4.054,13.139
			c0,3.749-0.769,7.478-2.308,11.186c-1.539,3.709-4.834,9.055-9.884,16.039c1.223,2.684,2.564,5.356,4.024,8.02
			c1.459,2.663,3.058,5.376,4.794,8.138c0.985-1.854,1.854-3.975,2.604-6.362c0.749-2.387,1.42-5.119,2.012-8.197l11.008,2.9
			c-0.435,3.669-1.272,7.25-2.515,10.741c-1.243,3.492-2.989,7.152-5.238,10.979c0.907,1.264,1.895,2.299,2.959,3.107
			c1.065,0.81,2.269,1.431,3.61,1.864v12.843c-2.722-0.198-5.208-0.879-7.457-2.042S967.771,147.064,965.759,144.815z M948.3,119.13
			c-1.184,1.974-2.081,3.896-2.692,5.771c-0.612,1.874-0.918,3.66-0.918,5.355c0,2.486,0.66,4.479,1.982,5.978
			c1.322,1.5,3.049,2.249,5.179,2.249c1.303,0,2.466-0.275,3.492-0.828c1.025-0.552,1.913-1.4,2.663-2.545
			c-1.5-1.775-3.009-3.915-4.527-6.422C951.959,126.183,950.232,122.997,948.3,119.13z M951.259,97.41
			c2.288-3.393,3.966-6.471,5.031-9.233c1.064-2.761,1.598-5.425,1.598-7.99c0-2.524-0.465-4.566-1.391-6.125
			c-0.928-1.558-2.122-2.338-3.581-2.338c-1.5,0-2.762,0.977-3.787,2.93c-1.027,1.953-1.539,4.489-1.539,7.605
			c0,2.447,0.285,4.883,0.858,7.309C949.02,91.995,949.957,94.609,951.259,97.41z"/>
		<path fill="#C21F29" d="M1010.501,128.304l12.606-1.895c0.236,4.341,1.065,7.546,2.485,9.617c1.421,2.071,3.512,3.107,6.273,3.107
			c2.406,0,4.359-0.759,5.859-2.278c1.499-1.519,2.249-3.521,2.249-6.008c0-4.458-3.551-10.218-10.653-17.281l-1.242-1.242
			c-6.945-6.944-11.403-12.281-13.376-16.009c-1.974-3.729-2.959-7.684-2.959-11.866c0-6.037,1.982-11.116,5.948-15.24
			c3.965-4.123,8.808-6.185,14.529-6.185c5.563,0,10.12,1.904,13.671,5.711c3.551,3.808,5.583,8.966,6.096,15.477l-12.901,1.834
			c-0.237-3.826-0.918-6.569-2.042-8.226c-1.124-1.657-2.851-2.486-5.179-2.486c-2.131,0-3.838,0.72-5.119,2.16
			c-1.282,1.441-1.924,3.364-1.924,5.771c0,4.971,4.144,11.462,12.429,19.471l0.77,0.77c6.075,5.918,10.062,10.752,11.955,14.5
			s2.841,7.95,2.841,12.605c0,6.234-1.934,11.354-5.8,15.358c-3.867,4.005-8.76,6.007-14.678,6.007
			c-6.55,0-11.748-2.091-15.595-6.273C1012.898,141.521,1010.816,135.722,1010.501,128.304z"/>
		<path fill="#C21F29" d="M1062.05,150.023V64.445h34.445v12.369h-21.247v22.43h15.312v12.369h-15.312v25.567h21.247v12.843H1062.05
			z"/>
		<path fill="#C21F29" d="M1100.577,150.023l14.086-85.579h17.222l14.026,85.579h-13.553l-2.663-18.524h-13.316l-2.841,18.524
			H1100.577z M1118.036,119.366h10.062L1123.6,83.62h-0.828L1118.036,119.366z"/>
		<path fill="#C21F29" d="M1166.567,114.04v35.983h-13.198V64.445h19.354c7.259,0,12.507,1.953,15.742,5.859
			c3.234,3.906,4.854,10.2,4.854,18.879c0,5.366-0.651,9.707-1.953,13.02c-1.303,3.314-3.433,5.998-6.393,8.05l9.706,39.771h-13.671
			l-8.167-35.983H1166.567z M1166.567,76.814v24.857h5.208c3.038,0,5.148-0.917,6.332-2.752s1.776-5.238,1.776-10.209
			c0-4.498-0.622-7.605-1.864-9.321c-1.243-1.716-3.483-2.575-6.718-2.575H1166.567z"/>
		<path fill="#C21F29" d="M1202.432,128.066V84.212c0-6.747,1.835-12.034,5.504-15.861c3.67-3.827,8.739-5.741,15.21-5.741
			c6.115,0,10.958,1.963,14.529,5.889c3.571,3.926,5.356,9.282,5.356,16.068v8.227h-13.553v-9.41c0-2.959-0.572-5.179-1.717-6.658
			s-2.841-2.219-5.09-2.219c-2.248,0-3.945,0.74-5.089,2.219c-1.146,1.479-1.717,3.699-1.717,6.658v47.761
			c0,2.959,0.571,5.188,1.717,6.688c1.144,1.5,2.841,2.249,5.089,2.249c2.249,0,3.945-0.749,5.09-2.249
			c1.145-1.499,1.717-3.729,1.717-6.688v-11.659h13.553v8.937c0,7.497-1.767,13.277-5.297,17.341
			c-3.531,4.063-8.552,6.096-15.063,6.096c-6.668,0-11.709-2.013-15.121-6.037C1204.138,141.797,1202.432,135.879,1202.432,128.066z
			"/>
		<path fill="#C21F29" d="M1254.335,64.445h13.08v34.917h13.197V64.445h13.198v85.579h-13.198v-38.291h-13.197v38.291h-13.08V64.445
			z"/>
	</g>
</g>
</svg>
